<svg xmlns="http://www.w3.org/2000/svg" viewBox="0 0 32 32"><defs><clipPath id="c"><path d="M16 2.5 C17 2.5 17.7 3.1 18 4 L24.5 22 C25.5 25 23.5 27.5 20.5 28.2 C17.5 29 14.5 29 11.5 28.2 C8.5 27.5 6.5 25 7.5 22 L14 4 C14.3 3.1 15 2.5 16 2.5 Z"/></clipPath></defs><path d="M16 2.5 C17 2.5 17.7 3.1 18 4 L24.5 22 C25.5 25 23.5 27.5 20.5 28.2 C17.5 29 14.5 29 11.5 28.2 C8.5 27.5 6.5 25 7.5 22 L14 4 C14.3 3.1 15 2.5 16 2.5 Z" fill="#fbbf24"/><g clip-path="url(#c)"><rect x="4" y="11" width="24" height="10" fill="#f97316"/><rect x="4" y="2" width="24" height="9" fill="#fef9c3"/></g></svg>
