<svg xmlns="http://www.w3.org/2000/svg" viewBox="0 0 32 32"><defs><clipPath id="e"><path d="M16 3 C22 3 26 11 26 18 C26 24.6 21.5 29 16 29 C10.5 29 6 24.6 6 18 C6 11 10 3 16 3 Z"/></clipPath></defs><path d="M16 3 C22 3 26 11 26 18 C26 24.6 21.5 29 16 29 C10.5 29 6 24.6 6 18 C6 11 10 3 16 3 Z" fill="#c4b5fd"/><g clip-path="url(#e)" stroke="#7c3aed" stroke-width="1.8" fill="none"><path d="M5 14 L9 11 L13 14 L17 11 L21 14 L25 11 L28 14"/><path d="M5 21 L9 18 L13 21 L17 18 L21 21 L25 18 L28 21"/></g></svg>
