<svg xmlns="http://www.w3.org/2000/svg" viewBox="0 0 32 32"><defs><clipPath id="e3"><path d="M16 3 C22 3 26 11 26 18 C26 24.6 21.5 29 16 29 C10.5 29 6 24.6 6 18 C6 11 10 3 16 3 Z"/></clipPath></defs><path d="M16 3 C22 3 26 11 26 18 C26 24.6 21.5 29 16 29 C10.5 29 6 24.6 6 18 C6 11 10 3 16 3 Z" fill="#fde68a"/><g clip-path="url(#e3)" stroke="#d97706" stroke-width="2" fill="none"><path d="M4 12 Q10 9.5 16 12 T28 12"/><path d="M4 18 Q10 15.5 16 18 T28 18"/><path d="M4 24 Q10 21.5 16 24 T28 24"/></g></svg>
